<svg width="156" height="331" viewBox="0 0 156 331" fill="none" xmlns="http://www.w3.org/2000/svg">
<rect x="64" y="296" width="75" height="35" fill="#444444"/>
<path d="M53.4138 126.955C52.8125 106.664 69.098 89.8887 89.398 89.8887H116.707C136.589 89.8887 152.707 106.006 152.707 125.889V166.019C152.707 169.716 151.853 173.364 150.211 176.677L147.009 183.14C146.325 184.52 146.199 186.11 146.657 187.58V187.58C148.19 192.507 143.193 196.939 138.485 194.828L134.222 192.917C133.437 192.565 132.714 192.091 132.079 191.512L131.315 190.816C130.962 190.494 130.571 190.216 130.151 189.989L124.39 186.872C123.07 186.158 121.466 187.113 121.466 188.614V188.614C121.466 189.599 120.742 190.435 119.766 190.575L65.4469 198.375C60.0246 199.154 56.0336 193.417 58.6489 188.604V188.604C59.7659 186.548 59.722 184.057 58.5334 182.041L56.0886 177.896C54.7128 175.563 53.9871 172.905 53.9871 170.196V146.3L53.4138 126.955Z" fill="black"/>
<path d="M89.7989 115.861C83.9425 115.861 79.1508 111.572 78.9906 106.188L77.4756 55.2276C77.6047 52.9242 78.9858 50.8565 81.1404 49.3685C83.3013 47.8855 86.2356 46.972 89.4525 46.972C95.8859 46.972 101.171 50.6162 101.423 55.2276L100.61 106.062C100.523 111.497 95.7084 115.861 89.7989 115.861Z" fill="black" stroke="#C10000" stroke-width="5.33333" stroke-miterlimit="10"/>
<path d="M113.745 116.864C107.889 116.864 103.097 112.575 102.937 107.19L101.422 56.2305C101.551 53.9272 102.932 51.8595 105.087 50.3714C107.248 48.8884 110.182 47.9749 113.399 47.9749C119.832 47.9749 125.117 51.6188 125.369 56.2305L124.557 107.065C124.47 112.5 119.654 116.864 113.745 116.864Z" fill="black" stroke="#C10000" stroke-width="5.33333" stroke-miterlimit="10"/>
<path d="M152.88 119.665C152.88 97.5942 149.467 33.0905 149.467 33.0905C149.236 27.256 144.413 22.6443 138.541 22.6443C132.669 22.6443 127.846 27.256 127.616 33.0905L124.736 95.8365" fill="black"/>
<path d="M152.88 119.665C152.88 97.5942 149.467 33.0905 149.467 33.0905C149.236 27.256 144.413 22.6443 138.541 22.6443C132.669 22.6443 127.846 27.256 127.616 33.0905L124.736 95.8365" stroke="#C10000" stroke-width="5.33333" stroke-miterlimit="10"/>
<path d="M142.79 255.405V296.037H59.0293V255.184" fill="black"/>
<path d="M142.79 255.405V296.037H59.0293V255.184" stroke="#C10000" stroke-width="5.33333" stroke-miterlimit="10"/>
<path d="M152.882 119.664V158.579C152.882 168.863 150.793 173.636 146.743 183.1L142.792 192.333V195.25" fill="black"/>
<path d="M152.882 119.664V158.579C152.882 168.863 150.793 173.636 146.743 183.1L142.792 192.333V195.25" stroke="#C10000" stroke-width="5.33333" stroke-miterlimit="10"/>
<path d="M59.0294 195.461V188.262C59.0294 188.262 43.4278 186.705 31.155 152.264C25.3667 136.043 25.273 133.391 21.2378 122.975C14.3435 106.258 11.2321 103.287 5.26586 95.724C2.1942 91.2841 2.17964 85.2634 5.6264 81.7225C9.8887 78.1178 20.1121 79.4242 28.7697 87.3655C37.427 95.3064 48.8111 116.905 48.8111 116.905L48.8088 117.405L53.0415 13.4462C53.2714 7.6121 58.095 2.99999 63.9667 2.99999C69.8385 2.99999 74.6617 7.6121 74.8915 13.4462L78.4095 86.6442" fill="black"/>
<path d="M59.0294 195.461V188.262C59.0294 188.262 43.4278 186.705 31.155 152.264C25.3667 136.043 25.273 133.391 21.2378 122.975C14.3435 106.258 11.2321 103.287 5.26586 95.724C2.1942 91.2841 2.17964 85.2634 5.6264 81.7225C9.8887 78.1178 20.1121 79.4242 28.7697 87.3655C37.427 95.3064 48.8111 116.905 48.8111 116.905L48.8088 117.405L53.0415 13.4462C53.2714 7.6121 58.095 2.99999 63.9667 2.99999C69.8385 2.99999 74.6617 7.6121 74.8915 13.4462L78.4095 86.6442" stroke="#C10000" stroke-width="5.33333" stroke-miterlimit="10" stroke-linecap="round" stroke-linejoin="round"/>
<path d="M57.6273 196.345C57.5879 196.36 57.543 196.374 57.5037 196.389C57.4789 196.399 57.4494 196.409 57.4246 196.413C57.0542 196.536 56.7086 196.649 56.3827 196.762L56.3776 196.767C56.3579 196.772 56.3382 196.777 56.3233 196.782C56.2886 196.792 56.2642 196.801 56.2394 196.806C56.2296 196.811 56.2245 196.811 56.2146 196.817C56.2099 196.817 56.2001 196.821 56.195 196.821C54.0121 197.572 52.8564 198.069 52.8564 198.069L56.6838 255.748C56.6838 255.748 58.0768 255.522 60.5116 255.183C64.8971 254.57 72.6656 253.587 81.7727 252.89L93.7642 268.306C94.2774 268.968 95.0678 269.352 95.9073 269.352H107.316C108.151 269.352 108.945 268.968 109.454 268.306L121.456 252.89C131.763 253.681 140.361 254.835 144.272 255.404C145.734 255.616 146.539 255.748 146.539 255.748L150.367 198.069C150.367 198.069 149.216 197.572 147.028 196.821H147.023C147.009 196.817 146.999 196.811 146.984 196.806" fill="black"/>
<path d="M57.6273 196.345C57.5879 196.36 57.543 196.374 57.5037 196.389C57.4789 196.399 57.4494 196.409 57.4246 196.413C57.0542 196.536 56.7086 196.649 56.3827 196.762L56.3776 196.767C56.3579 196.772 56.3382 196.777 56.3233 196.782C56.2886 196.792 56.2642 196.801 56.2394 196.806C56.2296 196.811 56.2245 196.811 56.2146 196.817C56.2099 196.817 56.2001 196.821 56.195 196.821C54.0121 197.572 52.8564 198.069 52.8564 198.069L56.6838 255.748C56.6838 255.748 58.0768 255.522 60.5116 255.183C64.8971 254.57 72.6656 253.587 81.7727 252.89L93.7642 268.306C94.2774 268.968 95.0678 269.352 95.9073 269.352H107.316C108.151 269.352 108.945 268.968 109.454 268.306L121.456 252.89C131.763 253.681 140.361 254.835 144.272 255.404C145.734 255.616 146.539 255.748 146.539 255.748L150.367 198.069C150.367 198.069 149.216 197.572 147.028 196.821H147.023C147.009 196.817 146.999 196.811 146.984 196.806" stroke="#C10000" stroke-width="5.33333" stroke-miterlimit="10"/>
<path d="M146.979 196.806H146.975C146.51 196.644 145.997 196.472 145.434 196.286C145.429 196.286 145.424 196.281 145.414 196.281" fill="black"/>
<path d="M146.979 196.806H146.975C146.51 196.644 145.997 196.472 145.434 196.286C145.429 196.286 145.424 196.281 145.414 196.281" stroke="#C10000" stroke-width="5.33333" stroke-miterlimit="10"/>
<path d="M145.908 196.458C145.918 196.458 145.928 196.462 145.938 196.467L146.071 196.511C146.22 196.56 146.353 196.61 146.466 196.644L146.832 196.762C146.856 196.772 146.876 196.777 146.896 196.782C146.93 196.791 146.955 196.801 146.975 196.806H146.98H146.985" fill="black"/>
<path d="M145.908 196.458C145.918 196.458 145.928 196.462 145.938 196.467L146.071 196.511C146.22 196.56 146.353 196.61 146.466 196.644L146.832 196.762C146.856 196.772 146.876 196.777 146.896 196.782C146.93 196.791 146.955 196.801 146.975 196.806H146.98H146.985" stroke="#C10000" stroke-width="5.33333" stroke-miterlimit="10"/>
<path d="M147.024 196.821C147.024 196.821 147.009 196.816 146.984 196.806H146.979H146.975C146.955 196.801 146.93 196.791 146.895 196.782C146.747 196.737 146.466 196.649 146.071 196.512L145.938 196.467C145.927 196.462 145.917 196.458 145.908 196.458C145.764 196.404 145.606 196.35 145.434 196.286C145.429 196.286 145.423 196.281 145.414 196.281C139.295 194.061 117.367 184.602 108.59 160.342C108.255 159.409 107.356 158.786 106.353 158.786H96.8708C95.8683 158.786 94.9693 159.409 94.6285 160.342C85.7685 184.843 63.4899 194.248 57.6276 196.344C57.5883 196.36 57.5434 196.374 57.504 196.389C57.4792 196.398 57.4497 196.409 57.4249 196.413C56.9314 196.59 56.5755 196.703 56.3779 196.767C56.3583 196.772 56.3386 196.777 56.3236 196.782C56.289 196.791 56.2646 196.801 56.2398 196.806C56.2299 196.811 56.2248 196.811 56.215 196.817C56.2103 196.817 56.2004 196.821 56.1953 196.821" fill="black"/>
<path d="M147.024 196.821C147.024 196.821 147.009 196.816 146.984 196.806H146.979H146.975C146.955 196.801 146.93 196.791 146.895 196.782C146.747 196.737 146.466 196.649 146.071 196.512L145.938 196.467C145.927 196.462 145.917 196.458 145.908 196.458C145.764 196.404 145.606 196.35 145.434 196.286C145.429 196.286 145.423 196.281 145.414 196.281C139.295 194.061 117.367 184.602 108.59 160.342C108.255 159.409 107.356 158.786 106.353 158.786H96.8708C95.8683 158.786 94.9693 159.409 94.6285 160.342C85.7685 184.843 63.4899 194.248 57.6276 196.344C57.5883 196.36 57.5434 196.374 57.504 196.389C57.4792 196.398 57.4497 196.409 57.4249 196.413C56.9314 196.59 56.5755 196.703 56.3779 196.767C56.3583 196.772 56.3386 196.777 56.3236 196.782C56.289 196.791 56.2646 196.801 56.2398 196.806C56.2299 196.811 56.2248 196.811 56.215 196.817C56.2103 196.817 56.2004 196.821 56.1953 196.821" stroke="#C10000" stroke-width="5.33333" stroke-miterlimit="10"/>
<path d="M15.1271 109.73C15.1271 109.73 14.9212 93.3484 33.276 92.3351Z" fill="black"/>
<path d="M15.1271 109.73C15.1271 109.73 14.9212 93.3484 33.276 92.3351" stroke="#C10000" stroke-width="5.33333" stroke-miterlimit="10" stroke-linecap="round" stroke-linejoin="round"/>
<path d="M24.2012 130.826C24.2012 130.826 24.6912 115.435 48.8178 117.188Z" fill="black"/>
<path d="M24.2012 130.826C24.2012 130.826 24.6912 115.435 48.8178 117.188" stroke="#C10000" stroke-width="5.33333" stroke-miterlimit="10" stroke-linecap="round" stroke-linejoin="round"/>
<path d="M31.84 153.387C31.84 153.387 31.5692 137.005 55.7382 135.991Z" fill="black"/>
<path d="M31.84 153.387C31.84 153.387 31.5692 137.005 55.7382 135.991" stroke="#C10000" stroke-width="5.33333" stroke-miterlimit="10" stroke-linecap="round" stroke-linejoin="round"/>
<path d="M43.7882 176.179C43.7882 176.179 43.5178 159.797 67.6869 158.784Z" fill="black"/>
<path d="M43.7882 176.179C43.7882 176.179 43.5178 159.797 67.6869 158.784" stroke="#C10000" stroke-width="5.33333" stroke-miterlimit="10" stroke-linecap="round" stroke-linejoin="round"/>
<path d="M52.3975 29.2505C52.3975 29.2505 63.2298 21.2211 75.6506 29.2505Z" fill="black"/>
<path d="M52.3975 29.2505C52.3975 29.2505 63.2298 21.2211 75.6506 29.2505" stroke="#C10000" stroke-width="5.33333" stroke-miterlimit="10" stroke-linecap="round" stroke-linejoin="round"/>
<path d="M100.944 95.6584C100.944 95.6584 90.6541 103.688 78.8555 95.6584Z" fill="black"/>
<path d="M100.944 95.6584C100.944 95.6584 90.6541 103.688 78.8555 95.6584" stroke="#C10000" stroke-width="5.33333" stroke-miterlimit="10" stroke-linecap="round" stroke-linejoin="round"/>
<path d="M100.944 72.4573C100.944 72.4573 90.2279 80.4866 77.9404 72.4573Z" fill="black"/>
<path d="M100.944 72.4573C100.944 72.4573 90.2279 80.4866 77.9404 72.4573" stroke="#C10000" stroke-width="5.33333" stroke-miterlimit="10" stroke-linecap="round" stroke-linejoin="round"/>
<path d="M51.3262 58.5605C51.3262 58.5605 63.1574 50.5312 76.7237 58.5605Z" fill="black"/>
<path d="M51.3262 58.5605C51.3262 58.5605 63.1574 50.5312 76.7237 58.5605" stroke="#C10000" stroke-width="5.33333" stroke-miterlimit="10" stroke-linecap="round" stroke-linejoin="round"/>
<path d="M50.1904 88.6885C50.1904 88.6885 63.0789 78.8196 77.8578 88.6885Z" fill="black"/>
<path d="M50.1904 88.6885C50.1904 88.6885 63.0789 78.8196 77.8578 88.6885" stroke="#C10000" stroke-width="5.33333" stroke-miterlimit="10" stroke-linecap="round" stroke-linejoin="round"/>
<path d="M127.182 48.9482C127.182 48.9482 137.884 40.9189 150.157 48.9482Z" fill="black"/>
<path d="M127.182 48.9482C127.182 48.9482 137.884 40.9189 150.157 48.9482" stroke="#C10000" stroke-width="5.33333" stroke-miterlimit="10" stroke-linecap="round" stroke-linejoin="round"/>
<path d="M126.109 78.2583C126.109 78.2583 137.941 70.2289 151.507 78.2583Z" fill="black"/>
<path d="M126.109 78.2583C126.109 78.2583 137.941 70.2289 151.507 78.2583" stroke="#C10000" stroke-width="5.33333" stroke-miterlimit="10" stroke-linecap="round" stroke-linejoin="round"/>
<path d="M124.975 108.387C124.975 108.387 137.863 98.5174 152.642 108.387Z" fill="black"/>
<path d="M124.975 108.387C124.975 108.387 137.863 98.5174 152.642 108.387" stroke="#C10000" stroke-width="5.33333" stroke-miterlimit="10" stroke-linecap="round" stroke-linejoin="round"/>
<path d="M124.65 95.6584C124.65 95.6584 114.36 103.688 102.562 95.6584Z" fill="black"/>
<path d="M124.65 95.6584C124.65 95.6584 114.36 103.688 102.562 95.6584" stroke="#C10000" stroke-width="5.33333" stroke-miterlimit="10" stroke-linecap="round" stroke-linejoin="round"/>
<path d="M124.649 72.4573C124.649 72.4573 113.933 80.4866 101.646 72.4573Z" fill="black"/>
<path d="M124.649 72.4573C124.649 72.4573 113.933 80.4866 101.646 72.4573" stroke="#C10000" stroke-width="5.33333" stroke-miterlimit="10" stroke-linecap="round" stroke-linejoin="round"/>
<path d="M62.6787 135.632L70.1796 135.329Z" fill="black"/>
<path d="M62.6787 135.632L70.1796 135.329" stroke="#C10000" stroke-width="5.33333" stroke-miterlimit="10" stroke-linecap="round" stroke-linejoin="round"/>
<path d="M110.019 252.319H93.2061L96.0431 177.862H107.182L110.019 252.319H93.2061H110.019Z" fill="black"/>
<path d="M110.019 252.319H93.2061L96.0431 177.862H107.182L110.019 252.319ZM110.019 252.319H93.2061H110.019Z" stroke="#C10000" stroke-width="5.33333" stroke-miterlimit="10" stroke-linecap="round" stroke-linejoin="round"/>
<path d="M95.2021 199.902H107.784Z" fill="black"/>
<path d="M95.2021 199.902H107.784" stroke="#C10000" stroke-width="5.33333" stroke-miterlimit="10" stroke-linecap="round" stroke-linejoin="round"/>
<path d="M136.47 133.14C141.383 133.229 147.362 134.835 153 140.312Z" fill="black"/>
<path d="M136.47 133.14C141.383 133.229 147.362 134.835 153 140.312" stroke="#C10000" stroke-width="5.33333" stroke-miterlimit="10" stroke-linecap="round" stroke-linejoin="round"/>
<path d="M73.0117 158.52L80.5126 158.216Z" fill="black"/>
<path d="M73.0117 158.52L80.5126 158.216" stroke="#C10000" stroke-width="5.33333" stroke-miterlimit="10" stroke-linecap="round" stroke-linejoin="round"/>
<path d="M123.278 132.955L130.785 132.962Z" fill="black"/>
<path d="M123.278 132.955L130.785 132.962" stroke="#C10000" stroke-width="5.33333" stroke-miterlimit="10" stroke-linecap="round" stroke-linejoin="round"/>
</svg>
